<svg width="236" height="253" viewBox="0 0 236 253" fill="none" xmlns="http://www.w3.org/2000/svg">
<path fill-rule="evenodd" clip-rule="evenodd" d="M203.311 40.4456C201.675 38.8102 199.024 38.8102 197.388 40.4456L161.972 75.8622C152.553 67.933 141.288 61.8944 128.609 58.4972C82.3634 46.1057 34.8285 73.55 22.437 119.796C10.0455 166.041 37.4897 213.576 83.7355 225.968C129.981 238.359 177.516 210.915 189.908 164.669C194.637 147.019 193.564 129.18 187.857 113.18L228.989 72.0469C230.625 70.4114 230.625 67.7598 228.989 66.1243L203.311 40.4456ZM74.0179 169.713L74.0306 169.726L99.7092 195.405C101.345 197.04 103.996 197.04 105.632 195.405L129.36 171.676L129.369 171.668L187.857 113.18C182.71 98.751 173.796 85.8167 161.972 75.8622L100.72 137.114L78.6526 115.046C77.0172 113.41 74.3655 113.41 72.7301 115.046L49.0016 138.774C47.3662 140.41 47.3662 143.061 49.0016 144.697L74.0179 169.713Z" fill="#FA7268"/>
</svg>
