<svg width="214" height="49" viewBox="0 0 214 49" fill="none" xmlns="http://www.w3.org/2000/svg">
<path fill-rule="evenodd" clip-rule="evenodd" d="M35.6416 0H50.2525C52.4261 0 54.1882 1.76209 54.1882 3.93574V23.1514V35.3596C54.1882 39.3884 52.898 42.4244 50.3176 44.4676C47.7372 46.5395 44.3053 47.5755 40.0219 47.5755C37.4931 47.5755 35.2223 47.2158 33.2096 46.4964C32.6817 46.3152 32.1805 46.1103 31.7059 45.8817C29.7799 44.9539 27.1307 45.1519 25.3544 46.3414C24.6863 46.7889 23.9502 47.1859 23.1461 47.5323C22.9291 47.6258 22.7078 47.7149 22.4823 47.7994C20.3483 48.5998 17.8344 49 14.9405 49C10.1925 49 6.50258 47.9064 3.87058 45.7194C1.29019 43.5323 -1.81136e-07 40.3668 0 36.2229V10.5687V3.93574C0 1.76209 1.76209 0 3.93574 0H11.2412H18.5466C20.7203 0 22.4823 1.76209 22.4823 3.93574V19.2157C26.3277 22.5337 28.3295 22.2897 31.7059 19.2157V3.93574C31.7059 1.76209 33.468 0 35.6416 0ZM37.3002 29.2301L37.4795 29.2301C39.6532 29.2301 41.4153 30.9922 41.4153 33.1658V33.9783C41.4153 36.1942 40.0735 37.3021 37.3899 37.3021C34.7063 37.3021 33.3645 36.1942 33.3645 33.9783V33.1658C33.3645 30.9922 35.1265 29.2301 37.3002 29.2301ZM17.0209 40.6763C14.1825 40.6763 12.7729 37.6042 12.7729 35.3596V33.1658C12.7729 30.9922 14.535 29.2301 16.7087 29.2301H17.3525C19.5261 29.2301 21.2882 30.9922 21.2882 33.1658V35.3596C21.2882 37.6042 19.8593 40.6763 17.0209 40.6763Z" fill="#FA7268"/>
<path d="M20.5758 37.9861C20.5758 39.4719 18.9842 40.6763 17.0209 40.6763C15.0576 40.6763 13.466 39.4719 13.466 37.9861C13.466 36.5004 15.0576 35.2959 17.0209 35.2959C18.9842 35.2959 20.5758 36.5004 20.5758 37.9861Z" fill="#FA7268"/>
<path d="M41.1412 36.3421C41.1412 37.8279 39.5497 39.0323 37.5863 39.0323C35.623 39.0323 34.2258 37.8279 34.2258 36.3421C34.2258 34.8564 35.623 33.6519 37.5863 33.6519C39.5497 33.6519 41.1412 34.8564 41.1412 36.3421Z" fill="#FA7268"/>
<path d="M99.9711 17.9043C102.092 17.9043 103.793 18.5532 105.075 19.8511C106.377 21.1489 107.028 23.1064 107.028 25.7234V35.6809H99.9081V26.9681C99.9081 24.9681 99.2046 23.9681 97.7974 23.9681C96.9993 23.9681 96.3483 24.2553 95.8442 24.8298C95.3612 25.383 95.1197 26.266 95.1197 27.4787V35.6809H88V12H95.1197V19.6277C96.4428 18.4787 98.0599 17.9043 99.9711 17.9043Z" fill="#FA7268"/>
<path d="M128.959 18.2234V35.6809H122.185V34.0213C121.555 34.6808 120.82 35.1809 119.98 35.5213C119.14 35.8404 118.248 36 117.302 36C115.118 36 113.365 35.3298 112.041 33.9894C110.718 32.6277 110.057 30.5851 110.057 27.8617V18.2234H117.176V26.617C117.176 27.8085 117.365 28.6596 117.743 29.1702C118.122 29.6809 118.678 29.9362 119.413 29.9362C120.106 29.9362 120.684 29.6596 121.146 29.1064C121.608 28.5319 121.839 27.6383 121.839 26.4255V18.2234H128.959Z" fill="#FA7268"/>
<path d="M154.925 17.9043C157.004 17.9043 158.663 18.5532 159.902 19.8511C161.162 21.1489 161.792 23.1064 161.792 25.7234V35.6809H154.673V26.9681C154.673 24.9681 154.032 23.9681 152.751 23.9681C152.079 23.9681 151.533 24.2234 151.113 24.734C150.714 25.2447 150.514 26.0532 150.514 27.1596V35.6809H143.395V26.9681C143.395 24.9681 142.754 23.9681 141.473 23.9681C140.801 23.9681 140.255 24.2234 139.835 24.734C139.436 25.2447 139.236 26.0532 139.236 27.1596V35.6809H132.116V18.2234H138.89V19.8511C140.171 18.5532 141.798 17.9043 143.773 17.9043C144.928 17.9043 145.967 18.1277 146.891 18.5745C147.815 19 148.571 19.6596 149.16 20.5532C149.853 19.7021 150.693 19.0532 151.68 18.6064C152.667 18.1383 153.748 17.9043 154.925 17.9043Z" fill="#FA7268"/>
<path d="M176.379 17.9043C177.891 17.9043 179.278 18.2766 180.538 19.0213C181.819 19.7447 182.827 20.7979 183.562 22.1809C184.318 23.5426 184.696 25.1277 184.696 26.9362C184.696 28.7447 184.318 30.3404 183.562 31.7234C182.827 33.1064 181.819 34.1702 180.538 34.9149C179.278 35.6383 177.891 36 176.379 36C174.258 36 172.683 35.4149 171.654 34.2447V35.6809H164.881V12H172V19.4043C173.009 18.4043 174.468 17.9043 176.379 17.9043ZM174.678 30.383C175.497 30.383 176.169 30.0851 176.694 29.4894C177.219 28.8723 177.482 28.0213 177.482 26.9362C177.482 25.8511 177.219 25.0106 176.694 24.4149C176.169 23.8191 175.497 23.5213 174.678 23.5213C173.859 23.5213 173.187 23.8191 172.662 24.4149C172.137 25.0106 171.874 25.8511 171.874 26.9362C171.874 28.0213 172.137 28.8723 172.662 29.4894C173.187 30.0851 173.859 30.383 174.678 30.383Z" fill="#FA7268"/>
<path d="M194.226 17.9043C197.251 17.9043 199.561 18.5957 201.157 19.9787C202.753 21.3404 203.551 23.4468 203.551 26.2979V35.6809H196.936V33.383C196.117 35.1277 194.489 36 192.053 36C190.688 36 189.522 35.766 188.556 35.2979C187.611 34.8085 186.886 34.1596 186.382 33.3511C185.899 32.5213 185.658 31.5957 185.658 30.5745C185.658 28.8511 186.309 27.5426 187.611 26.6489C188.913 25.7553 190.887 25.3085 193.533 25.3085H196.4C196.169 23.9468 195.088 23.266 193.155 23.266C192.378 23.266 191.591 23.3936 190.793 23.6489C189.995 23.883 189.312 24.2128 188.745 24.6383L186.477 19.883C187.464 19.266 188.65 18.7872 190.037 18.4468C191.444 18.0851 192.84 17.9043 194.226 17.9043ZM194.195 31.6596C194.699 31.6596 195.151 31.5213 195.55 31.2447C195.949 30.9681 196.243 30.5532 196.432 30V28.7872H194.668C193.218 28.7872 192.494 29.2766 192.494 30.2553C192.494 30.6596 192.641 31 192.935 31.2766C193.25 31.5319 193.67 31.6596 194.195 31.6596Z" fill="#FA7268"/>
<path d="M209.842 36C208.645 36 207.647 35.617 206.849 34.8511C206.072 34.0638 205.683 33.0638 205.683 31.8511C205.683 30.6383 206.072 29.6596 206.849 28.9149C207.647 28.1489 208.645 27.766 209.842 27.766C211.039 27.766 212.026 28.1489 212.803 28.9149C213.601 29.6596 214 30.6383 214 31.8511C214 33.0638 213.601 34.0638 212.803 34.8511C212.026 35.617 211.039 36 209.842 36Z" fill="#FA7268"/>
</svg>
