<svg width="165" height="94" viewBox="0 0 165 94" fill="none" xmlns="http://www.w3.org/2000/svg">
<path fill-rule="evenodd" clip-rule="evenodd" d="M165 10C165 4.47715 160.523 0 155 0H10C4.47715 0 0 4.47715 0 10V84C0 89.5228 4.47715 94 10 94H155C160.523 94 165 89.5228 165 84V10ZM162 81V7V7C162 6.78041 161.759 6.64634 161.572 6.76235L161.19 7L87.7829 52.6747C84.5485 54.6873 80.4515 54.6873 77.2171 52.6747L3.80972 7L3.42777 6.76235C3.24132 6.64634 3 6.78041 3 7V7V81C3 86.5228 7.47715 91 13 91H152C157.523 91 162 86.5229 162 81Z" fill="#FA7268"/>
</svg>
